<svg width="1024" height="1024" viewBox="0 0 1024 1024" xmlns="http://www.w3.org/2000/svg">
  <defs>
    <linearGradient id="ulg" x1="0" y1="0" x2="1" y2="0">
      <stop offset="0%"   stop-color="#f5cfa3" stop-opacity="0.08"/>
      <stop offset="20%"  stop-color="#f5cfa3"/>
      <stop offset="75%"  stop-color="#b6e6b3"/>
      <stop offset="100%" stop-color="#b6e6b3" stop-opacity="0.55"/>
    </linearGradient>
  </defs>
  <rect width="1024" height="1024" rx="225" fill="#4a4d52"/>
  <rect x="14" y="14" width="996" height="996" rx="212" stroke="#f0c79a" stroke-width="16" fill="none"/>
  <path d="M636.30 660L545.56 660L545.56 325.33L689.76 325.33Q727.05 325.33 755.01 338.92Q782.97 352.51 798.58 378Q814.20 403.50 814.20 438.98Q814.20 474.92 798.25 499.63Q783.42 522.76 757.14 535.34L825.43 660L726.60 660L667.75 549.49L636.30 549.49L636.30 660M636.30 398.11L636.30 478.96L668.20 478.96Q684.37 478.96 695.83 474.92Q707.28 470.88 713.35 462.12Q719.41 453.36 719.41 438.98Q719.41 424.61 713.35 415.63Q707.28 406.64 695.83 402.37Q684.37 398.11 668.20 398.11" fill="#b6e6b3"/>
  <path d="M405.68 664.04Q362.10 664.04 329.65 651.13Q297.19 638.21 279.22 611.26Q261.25 584.31 261.03 542.30L347.28 542.30Q348.18 557.58 355.03 568.13Q361.88 578.69 374.34 584.08Q386.81 589.47 404.33 589.47Q418.93 589.47 428.81 585.88Q438.69 582.29 443.75 575.88Q448.80 569.48 448.80 561.17Q448.80 553.54 443.97 547.81Q439.14 542.08 428.14 537.36Q417.13 532.65 398.49 528.83L364.80 521.64Q320.55 512.21 295.06 489.41Q269.56 466.61 269.56 427.30Q269.56 395.41 286.86 371.49Q304.15 347.57 334.59 334.20Q365.02 320.84 404.78 320.84Q445.43 320.84 474.97 334.43Q504.50 348.02 520.56 372.61Q536.62 397.21 536.85 430L449.70 430Q448.58 413.60 437.68 404.51Q426.79 395.41 404.78 395.41Q390.85 395.41 381.87 398.67Q372.88 401.92 368.62 407.76Q364.35 413.60 364.35 421.02Q364.35 428.88 368.95 434.83Q373.56 440.78 383.55 445.16Q393.55 449.54 409.27 452.91L436.67 458.75Q464.30 464.59 484.18 474.25Q504.05 483.91 516.75 496.82Q529.44 509.74 535.39 525.91Q541.34 542.08 541.34 561.17Q541.34 594.19 525.06 617.21Q508.77 640.23 478.45 652.14Q448.13 664.04 405.68 664.04" fill="#f5cfa3"/>
  <rect x="248" y="706" width="583" height="22" rx="11" fill="url(#ulg)"/>
</svg>
